<?xml version="1.0" encoding="UTF-8"?>
<svg version="1.1" xmlns="http://www.w3.org/2000/svg" width="32" height="32">
<path d="M0 0 C0 0.66 0 1.32 0 2 C0.99 2 1.98 2 3 2 C3 2.66 3 3.32 3 4 C3.66 4 4.32 4 5 4 C5 4.66 5 5.32 5 6 C5.66 6 6.32 6 7 6 C7 6.99 7 7.98 7 9 C7.66 9 8.32 9 9 9 C7.68270799 19.05301794 7.68270799 19.05301794 5.0625 22.6875 C3 24 3 24 0 24 C-0.45375 24.495 -0.9075 24.99 -1.375 25.5 C-3 27 -3 27 -5.5625 27.25 C-8 27 -8 27 -10 26 C-10 25.34 -10 24.68 -10 24 C-11.98 23.67 -13.96 23.34 -16 23 C-16 21.68 -16 20.36 -16 19 C-16.66 18.67 -17.32 18.34 -18 18 C-17.67 16.35 -17.34 14.7 -17 13 C-17.66 13 -18.32 13 -19 13 C-18.54648272 8.91834445 -18.2407215 6.61750583 -15 4 C-14.566875 3.484375 -14.13375 2.96875 -13.6875 2.4375 C-9.43357848 -1.18621093 -5.22934318 -1.24508171 0 0 Z " fill="#D4930F" transform="translate(22,2)"/>
<path d="M0 0 C0 0.66 0 1.32 0 2 C0.99 2 1.98 2 3 2 C3 2.66 3 3.32 3 4 C3.66 4 4.32 4 5 4 C5 4.66 5 5.32 5 6 C5.66 6 6.32 6 7 6 C7 6.99 7 7.98 7 9 C7.66 9 8.32 9 9 9 C8.34 12.63 7.68 16.26 7 20 C5.35 19.34 3.7 18.68 2 18 C1.9175 16.741875 1.835 15.48375 1.75 14.1875 C1.38378988 11.4238343 1.21535789 10.26704378 -0.5625 8.0625 C-4.0359544 6.54843013 -7.22551024 6.31454081 -11 6 C-11.144375 6.639375 -11.28875 7.27875 -11.4375 7.9375 C-12 10 -12 10 -13 11 C-14.66617115 11.04063832 -16.33388095 11.042721 -18 11 C-18 7 -18 7 -16.6875 5.4375 C-16.130625 4.963125 -15.57375 4.48875 -15 4 C-14.566875 3.484375 -14.13375 2.96875 -13.6875 2.4375 C-9.43357848 -1.18621093 -5.22934318 -1.24508171 0 0 Z " fill="#F6D329" transform="translate(22,2)"/>
<path d="M0 0 C0.66 0 1.32 0 2 0 C2 0.66 2 1.32 2 2 C2.99 2 3.98 2 5 2 C5 2.66 5 3.32 5 4 C5.66 4 6.32 4 7 4 C7 4.66 7 5.32 7 6 C7.66 6 8.32 6 9 6 C9 6.99 9 7.98 9 9 C9.66 9 10.32 9 11 9 C10.34 12.63 9.68 16.26 9 20 C6.525 19.01 6.525 19.01 4 18 C4 16.35 4 14.7 4 13 C4.66 12.67 5.32 12.34 6 12 C5.67 10.35 5.34 8.7 5 7 C3.02 6.34 1.04 5.68 -1 5 C-0.67 3.35 -0.34 1.7 0 0 Z " fill="#F9DC2D" transform="translate(20,2)"/>
<path d="M0 0 C3.02419525 0.58803797 6.01758453 1.22678118 9 2 C9.36075949 6.44936709 9.36075949 6.44936709 7.8125 8.8125 C5.3864306 10.40199375 3.84602594 10.36487512 1 10 C-1 8 -1 8 -1.1875 5 C-1 2 -1 2 0 0 Z " fill="#8D3E0C" transform="translate(13,10)"/>
<path d="M0 0 C1.9375 0.25 1.9375 0.25 4 1 C4.66 1.99 5.32 2.98 6 4 C9.06556598 4.73343428 9.06556598 4.73343428 12 5 C12 6.65 12 8.3 12 10 C8.27970336 10 5.51822185 8.83678147 2.05859375 7.55859375 C-0.04169797 6.74341702 -0.04169797 6.74341702 -2 8 C-1.125 1.125 -1.125 1.125 0 0 Z " fill="#F2CD2D" transform="translate(8,15)"/>
<path d="M0 0 C0.33 0 0.66 0 1 0 C1 1.98 1 3.96 1 6 C3.31 6.33 5.62 6.66 8 7 C8.33 9.31 8.66 11.62 9 14 C7.68 14.33 6.36 14.66 5 15 C4.896875 14.21625 4.79375 13.4325 4.6875 12.625 C4.22404978 9.66954819 4.22404978 9.66954819 1 8 C-0.65549531 7.61500109 -2.3222433 7.27206865 -4 7 C-4 6.01 -4 5.02 -4 4 C-3.34 4 -2.68 4 -2 4 C-2 3.34 -2 2.68 -2 2 C-1.34 2 -0.68 2 0 2 C0 1.34 0 0.68 0 0 Z " fill="#F8BC08" transform="translate(18,1)"/>
<path d="M0 0 C1.6875 2.0625 1.6875 2.0625 3 4 C0.60490662 6.89932357 -1.31245243 7.50168276 -5 8 C-6.35439668 5.29120665 -6.06501451 2.99066732 -6 0 C-3 -1 -3 -1 0 0 Z " fill="#DAA215" transform="translate(25,19)"/>
<path d="M0 0 C1.32 0.66 2.64 1.32 4 2 C3.125 5.875 3.125 5.875 2 7 C0.33382885 7.04063832 -1.33388095 7.042721 -3 7 C-3 3 -3 3 -1.5 1.25 C-1.005 0.8375 -0.51 0.425 0 0 Z " fill="#EFCC2F" transform="translate(7,6)"/>
<path d="M0 0 C2 0.25 2 0.25 4 1 C4.33 1.99 4.66 2.98 5 4 C0.25 6.875 0.25 6.875 -2 8 C-1.125 1.125 -1.125 1.125 0 0 Z " fill="#ECC126" transform="translate(8,15)"/>
<path d="M0 0 C1.98 0 3.96 0 6 0 C5.67 1.98 5.34 3.96 5 6 C2.525 5.01 2.525 5.01 0 4 C0 2.68 0 1.36 0 0 Z " fill="#EEC327" transform="translate(24,16)"/>
<path d="M0 0 C0.99 0 1.98 0 3 0 C3 1.65 3 3.3 3 5 C-0.28976808 6.09658936 -1.71303767 5.79953138 -5 5 C-4.67 4.34 -4.34 3.68 -4 3 C-2.35 3.33 -0.7 3.66 1 4 C0.67 2.68 0.34 1.36 0 0 Z " fill="#974B0D" transform="translate(19,12)"/>
<path d="M0 0 C2.475 0.495 2.475 0.495 5 1 C5 1.99 5 2.98 5 4 C3.35 4 1.7 4 0 4 C0 2.68 0 1.36 0 0 Z " fill="#54370B" transform="translate(15,12)"/>
<path d="M0 0 C0.33 0.66 0.66 1.32 1 2 C1.99 2.33 2.98 2.66 4 3 C4 3.66 4 4.32 4 5 C1.03 4.505 1.03 4.505 -2 4 C-1.34 2.68 -0.68 1.36 0 0 Z " fill="#C39110" transform="translate(8,21)"/>
<path d="M0 0 C1.32 0 2.64 0 4 0 C3.67 1.32 3.34 2.64 3 4 C1.68 4 0.36 4 -1 4 C-0.67 2.68 -0.34 1.36 0 0 Z " fill="#F7DD38" transform="translate(10,19)"/>
<path d="M0 0 C1.32 0.33 2.64 0.66 4 1 C4 2.32 4 3.64 4 5 C2.125 5.625 2.125 5.625 0 6 C-0.66 5.34 -1.32 4.68 -2 4 C-1.34 3.67 -0.68 3.34 0 3 C0 2.01 0 1.02 0 0 Z " fill="#F5D32F" transform="translate(26,11)"/>
<path d="M0 0 C0.66 0 1.32 0 2 0 C2 0.66 2 1.32 2 2 C2.66 2 3.32 2 4 2 C4 2.99 4 3.98 4 5 C4.66 5 5.32 5 6 5 C5.67 5.66 5.34 6.32 5 7 C4.01 7 3.02 7 2 7 C2 6.01 2 5.02 2 4 C1.34 3.67 0.68 3.34 0 3 C0 2.01 0 1.02 0 0 Z " fill="#F8DE3C" transform="translate(25,6)"/>
</svg>
